<?xml version="1.0" standalone="no"?>
<!DOCTYPE svg PUBLIC "-//W3C//DTD SVG 20010904//EN"
 "http://www.w3.org/TR/2001/REC-SVG-20010904/DTD/svg10.dtd">
<svg version="1.0" xmlns="http://www.w3.org/2000/svg"
 width="1280.000000pt" height="1280.000000pt" viewBox="0 0 1280.000000 1280.000000"
 preserveAspectRatio="xMidYMid meet">

<g transform="translate(0.000000,1280.000000) scale(0.100000,-0.100000)"
fill="red" stroke="none">
<path d="M6130 12794 c-41 -2 -160 -11 -265 -20 -1852 -154 -3551 -1112 -4645
-2620 -397 -546 -716 -1179 -916 -1813 -365 -1159 -399 -2366 -99 -3536 338
-1318 1092 -2496 2155 -3366 716 -586 1598 -1026 2501 -1248 535 -131 978
-184 1539 -184 380 0 580 13 921 63 2059 301 3833 1572 4779 3425 359 705 579
1452 665 2260 114 1075 -66 2215 -510 3225 -443 1007 -1162 1906 -2045 2559
-957 708 -2075 1130 -3270 1236 -170 15 -659 26 -810 19z m500 -2134 c574 -35
1099 -168 1599 -406 1050 -500 1838 -1387 2218 -2499 47 -138 128 -455 153
-603 89 -525 89 -979 0 -1504 -25 -148 -106 -465 -153 -603 -438 -1280 -1412
-2254 -2692 -2692 -138 -47 -455 -128 -603 -153 -525 -89 -979 -89 -1504 0
-148 25 -465 106 -603 153 -1112 380 -1999 1168 -2499 2218 -123 258 -203 479
-276 764 -155 605 -178 1183 -70 1817 25 148 106 465 153 603 380 1112 1168
1999 2218 2499 258 123 479 203 764 276 438 113 867 156 1295 130z"/>
<path fill="red" d="M6220 8524 c-14 -2 -65 -9 -115 -15 -348 -44 -744 -214 -1039 -447
-91 -71 -257 -237 -328 -328 -183 -232 -331 -531 -402 -812 -50 -196 -60 -282
-60 -522 0 -240 10 -326 60 -522 71 -281 219 -580 402 -812 71 -91 237 -257
328 -328 287 -227 632 -379 1009 -445 141 -24 509 -24 650 0 377 66 722 218
1009 445 91 71 257 237 328 328 183 232 331 531 402 812 50 196 60 282 60 522
0 240 -10 326 -60 522 -71 281 -219 580 -402 812 -71 91 -237 257 -328 328
-286 226 -636 381 -1004 443 -90 16 -452 29 -510 19z"/>
</g>
</svg>
